<svg xmlns="http://www.w3.org/2000/svg" viewBox="0 0 64 64" width="64" height="64">
  <defs>
    <linearGradient id="fgp-g" x1="10" y1="8" x2="54" y2="56" gradientUnits="userSpaceOnUse">
      <stop offset="0" stop-color="#f4d37a"/>
      <stop offset="0.55" stop-color="#d7a446"/>
      <stop offset="1" stop-color="#b37a2b"/>
    </linearGradient>
    <radialGradient id="fgp-glow" cx="28" cy="18" r="40" gradientUnits="userSpaceOnUse">
      <stop offset="0" stop-color="#ffffff" stop-opacity="0.28"/>
      <stop offset="1" stop-color="#ffffff" stop-opacity="0"/>
    </radialGradient>
    <filter id="fgp-shadow" x="-20%" y="-20%" width="140%" height="140%" color-interpolation-filters="sRGB">
      <feDropShadow dx="0" dy="2" stdDeviation="2.2" flood-color="#000000" flood-opacity="0.35"/>
    </filter>
  </defs>

  <rect x="3" y="3" width="58" height="58" rx="15" fill="#0b0b0f"/>
  <rect x="3" y="3" width="58" height="58" rx="15" fill="url(#fgp-glow)"/>

  <g filter="url(#fgp-shadow)" fill="none" stroke="url(#fgp-g)" stroke-linecap="round" stroke-linejoin="round">
    <!-- F -->
    <path d="M17 19 V45" stroke-width="4.8"/>
    <path d="M17 19 H29" stroke-width="4.8"/>
    <path d="M17 31 H27" stroke-width="4.8"/>

    <!-- G -->
    <path d="M44 26
             C41.5 22.5 37.8 20.5 33.6 20.5
             C26.7 20.5 22.2 26 22.2 32
             C22.2 38.3 26.8 43.5 33.9 43.5
             C38.5 43.5 42.3 41.6 44.7 38.1" stroke-width="4.8"/>
    <path d="M44.8 34.2 H37.2" stroke-width="4.8"/>

    <!-- P (small, premium accent) -->
    <path d="M48.5 21.5 V45" stroke-width="4.2"/>
    <path d="M48.6 22
             H53.2
             C56.4 22 58.3 24.1 58.3 27
             C58.3 30.1 56.3 32 53.2 32
             H48.6" stroke-width="4.2"/>
  </g>

  <!-- micro mark for AI: two dots and a dash to remain legible at tiny sizes -->
  <g fill="url(#fgp-g)">
    <circle cx="22" cy="49.5" r="1.6"/>
    <circle cx="26.3" cy="49.5" r="1.6"/>
    <rect x="30.2" y="48.3" width="10.8" height="2.4" rx="1.2"/>
  </g>
</svg>
